<?xml version="1.0"?>
<svg width="250mm" height="200mm" viewBox="0 0   3200    1500"
     xmlns="http://www.w3.org/2000/svg"
     xmlns:xlink="http://www.w3.org/1999/xlink"
     xmlns:ev="http://www.w3.org/2001/xml-events">
<g font-family="Verdana" font-size="8" >
  <line x1="   300" y1="   750" x2="   300" y2="   830" style = "stroke:silver  ;"/>
  <line x1="   300" y1="   750" x2="   300" y2="   910" style = "stroke:silver  ;"/>
  <line x1="   300" y1="   750" x2="   300" y2="   990" style = "stroke:silver  ;"/>
  <line x1="   300" y1="   750" x2="   300" y2="  1070" style = "stroke:silver  ;"/>
  <line x1="   300" y1="   830" x2="   300" y2="   910" style = "stroke:silver  ;"/>
  <line x1="   300" y1="   830" x2="   300" y2="   990" style = "stroke:silver  ;"/>
  <line x1="   300" y1="   830" x2="   300" y2="  1070" style = "stroke:silver  ;"/>
  <line x1="   300" y1="   910" x2="   300" y2="   990" style = "stroke:silver  ;"/>
  <line x1="   300" y1="   910" x2="   300" y2="  1070" style = "stroke:silver  ;"/>
  <line x1="   300" y1="   990" x2="   300" y2="  1070" style = "stroke:silver  ;"/>
  <line x1="  2400" y1="   470" x2="   800" y2="    30" style = "stroke:silver  ;"/>
  <line x1="  2400" y1="   510" x2="   800" y2="   110" style = "stroke:silver  ;"/>
  <line x1="  2400" y1="   550" x2="   800" y2="   190" style = "stroke:silver  ;"/>
  <line x1="  2400" y1="   590" x2="   800" y2="   270" style = "stroke:silver  ;"/>
  <line x1="  2400" y1="   630" x2="   800" y2="   350" style = "stroke:silver  ;"/>
  <rect x="   200" y="   740" width="   200" height="    20" style = "fill:snow; stroke: Black;"/>     1
  <text x="   202" y="   753">OutdoorAir:Node</text>
  <rect x="   200" y="   820" width="   200" height="    20" style = "fill:snow; stroke: Black;"/>     3
  <text x="   202" y="   833">OutdoorAir:Node</text>
  <rect x="   200" y="   900" width="   200" height="    20" style = "fill:snow; stroke: Black;"/>     5
  <text x="   202" y="   913">OutdoorAir:Node</text>
  <rect x="   200" y="   980" width="   200" height="    20" style = "fill:snow; stroke: Black;"/>     7
  <text x="   202" y="   993">OutdoorAir:Node</text>
  <rect x="   200" y="  1060" width="   200" height="    20" style = "fill:snow; stroke: Black;"/>     9
  <text x="   202" y="  1073">OutdoorAir:Node</text>
  <rect x="  2000" y="   460" width="   200" height="    20" style = "fill:wheat; stroke: Black;"/>    12
  <text x="  2002" y="   473">HEATSYS1 DEMAND SPLITTER</text>
  <rect x="  2600" y="   660" width="   200" height="    20" style = "fill:wheat; stroke: Black;"/>    13
  <text x="  2602" y="   673">HEATSYS1 DEMAND MIXER</text>
  <rect x="   500" y="   420" width="   200" height="    20" style = "fill:wheat; stroke: Black;"/>    14
  <text x="   502" y="   433">HEATSYS1 SUPPLY SPLITTER</text>
  <rect x="  1100" y="   460" width="   200" height="    20" style = "fill:wheat; stroke: Black;"/>    15
  <text x="  1102" y="   473">HEATSYS1 SUPPLY MIXER</text>
  <rect x="  1200" y="    20" width="   200" height="    20" style = "fill:chartreuse; stroke: Black;"/>    16
  <text x="  1202" y="    33">ZN_1_FLR_1_SEC_1</text>
  <rect x="   200" y="    20" width="   200" height="    20" style = "fill:lawngreen; stroke: Black;"/>    21
  <text x="   202" y="    33">ZN_1_FLR_1_SEC_1 PTAC OA MIXER</text>
  <rect x="   200" y="   100" width="   200" height="    20" style = "fill:lawngreen; stroke: Black;"/>    22
  <text x="   202" y="   113">ZN_1_FLR_1_SEC_2 PTAC OA MIXER</text>
  <rect x="   200" y="   180" width="   200" height="    20" style = "fill:lawngreen; stroke: Black;"/>    23
  <text x="   202" y="   193">ZN_1_FLR_1_SEC_3 PTAC OA MIXER</text>
  <rect x="   200" y="   260" width="   200" height="    20" style = "fill:lawngreen; stroke: Black;"/>    24
  <text x="   202" y="   273">ZN_1_FLR_1_SEC_4 PTAC OA MIXER</text>
  <rect x="   200" y="   340" width="   200" height="    20" style = "fill:lawngreen; stroke: Black;"/>    25
  <text x="   202" y="   353">ZN_1_FLR_1_SEC_5 PTAC OA MIXER</text>
  <rect x="   950" y="    20" width="   200" height="    20" style = "fill:silver; stroke: Black;"/>    26
  <text x="   952" y="    33">ZN_1_FLR_1_SEC_1 PTACFAN</text>
  <rect x="   950" y="   100" width="   200" height="    20" style = "fill:silver; stroke: Black;"/>    27
  <text x="   952" y="   113">ZN_1_FLR_1_SEC_2 PTACFAN</text>
  <rect x="   950" y="   180" width="   200" height="    20" style = "fill:silver; stroke: Black;"/>    28
  <text x="   952" y="   193">ZN_1_FLR_1_SEC_3 PTACFAN</text>
  <rect x="   950" y="   260" width="   200" height="    20" style = "fill:silver; stroke: Black;"/>    29
  <text x="   952" y="   273">ZN_1_FLR_1_SEC_4 PTACFAN</text>
  <rect x="   950" y="   340" width="   200" height="    20" style = "fill:silver; stroke: Black;"/>    30
  <text x="   952" y="   353">ZN_1_FLR_1_SEC_5 PTACFAN</text>
  <rect x="  2300" y="   460" width="   200" height="    20" style = "fill:salmon; stroke: Black;"/>    31
  <text x="  2302" y="   473">ZN_1_FLR_1_SEC_1 PTAC HEAT COIL</text>
  <rect x="   700" y="    20" width="   200" height="    20" style = "fill:salmon; stroke: Black;"/>    32
  <text x="   702" y="    33">ZN_1_FLR_1_SEC_1 PTAC HEAT COIL</text>
  <rect x="  2300" y="   500" width="   200" height="    20" style = "fill:salmon; stroke: Black;"/>    33
  <text x="  2302" y="   513">ZN_1_FLR_1_SEC_2 PTAC HEAT COIL</text>
  <rect x="   700" y="   100" width="   200" height="    20" style = "fill:salmon; stroke: Black;"/>    34
  <text x="   702" y="   113">ZN_1_FLR_1_SEC_2 PTAC HEAT COIL</text>
  <rect x="  2300" y="   540" width="   200" height="    20" style = "fill:salmon; stroke: Black;"/>    35
  <text x="  2302" y="   553">ZN_1_FLR_1_SEC_3 PTAC HEAT COIL</text>
  <rect x="   700" y="   180" width="   200" height="    20" style = "fill:salmon; stroke: Black;"/>    36
  <text x="   702" y="   193">ZN_1_FLR_1_SEC_3 PTAC HEAT COIL</text>
  <rect x="  2300" y="   580" width="   200" height="    20" style = "fill:salmon; stroke: Black;"/>    37
  <text x="  2302" y="   593">ZN_1_FLR_1_SEC_4 PTAC HEAT COIL</text>
  <rect x="   700" y="   260" width="   200" height="    20" style = "fill:salmon; stroke: Black;"/>    38
  <text x="   702" y="   273">ZN_1_FLR_1_SEC_4 PTAC HEAT COIL</text>
  <rect x="  2300" y="   620" width="   200" height="    20" style = "fill:salmon; stroke: Black;"/>    39
  <text x="  2302" y="   633">ZN_1_FLR_1_SEC_5 PTAC HEAT COIL</text>
  <rect x="   700" y="   340" width="   200" height="    20" style = "fill:salmon; stroke: Black;"/>    40
  <text x="   702" y="   353">ZN_1_FLR_1_SEC_5 PTAC HEAT COIL</text>
  <rect x="   450" y="    20" width="   200" height="    20" style = "fill:skyblue; stroke: Black;"/>    41
  <text x="   452" y="    33">ZN_1_FLR_1_SEC_1 PTAC DX COIL</text>
  <rect x="   450" y="   100" width="   200" height="    20" style = "fill:skyblue; stroke: Black;"/>    42
  <text x="   452" y="   113">ZN_1_FLR_1_SEC_2 PTAC DX COIL</text>
  <rect x="   450" y="   180" width="   200" height="    20" style = "fill:skyblue; stroke: Black;"/>    43
  <text x="   452" y="   193">ZN_1_FLR_1_SEC_3 PTAC DX COIL</text>
  <rect x="   450" y="   260" width="   200" height="    20" style = "fill:skyblue; stroke: Black;"/>    44
  <text x="   452" y="   273">ZN_1_FLR_1_SEC_4 PTAC DX COIL</text>
  <rect x="   450" y="   340" width="   200" height="    20" style = "fill:skyblue; stroke: Black;"/>    45
  <text x="   452" y="   353">ZN_1_FLR_1_SEC_5 PTAC DX COIL</text>
  <rect x="   800" y="   460" width="   200" height="    20" style = "fill:wheat; stroke: Black;"/>    46
  <text  x="   802" y="   468">HEATSYS1 SUPPLY EQUIPMENT BYPASS
  <tspan x="   802" y="   476">PIPE</tspan></text>
  <rect x="  1400" y="   460" width="   200" height="    20" style = "fill:wheat; stroke: Black;"/>    47
  <text x="  1402" y="   473">HEATSYS1 SUPPLY OUTLET PIPE</text>
  <rect x="  1700" y="   460" width="   200" height="    20" style = "fill:wheat; stroke: Black;"/>    48
  <text x="  1702" y="   473">HEATSYS1 DEMAND INLET PIPE</text>
  <rect x="  2300" y="   660" width="   200" height="    20" style = "fill:wheat; stroke: Black;"/>    49
  <text x="  2302" y="   673">HEATSYS1 DEMAND BYPASS PIPE</text>
  <rect x="  2900" y="   660" width="   200" height="    20" style = "fill:wheat; stroke: Black;"/>    50
  <text x="  2902" y="   673">HEATSYS1 DEMAND OUTLET PIPE</text>
  <rect x="   800" y="   420" width="   200" height="    20" style = "fill:indianred; stroke: Black;"/>    51
  <text x="   802" y="   433">HEATSYS1 BOILER</text>
  <rect x="   200" y="   420" width="   200" height="    20" style = "fill:springgreen; stroke: Black;"/>    52
  <text x="   202" y="   433">HEATSYS1 PUMP</text>
  <rect x="  1200" y="   100" width="   200" height="    20" style = "fill:chartreuse; stroke: Black;"/>    53
  <text x="  1202" y="   113">ZN_1_FLR_1_SEC_2</text>
  <rect x="  1200" y="   180" width="   200" height="    20" style = "fill:chartreuse; stroke: Black;"/>    54
  <text x="  1202" y="   193">ZN_1_FLR_1_SEC_3</text>
  <rect x="  1200" y="   260" width="   200" height="    20" style = "fill:chartreuse; stroke: Black;"/>    55
  <text x="  1202" y="   273">ZN_1_FLR_1_SEC_4</text>
  <rect x="  1200" y="   340" width="   200" height="    20" style = "fill:chartreuse; stroke: Black;"/>    56
  <text x="  1202" y="   353">ZN_1_FLR_1_SEC_5</text>
  <line x1="  2200" y1="   470" x2="  2300" y2="   470" style = "stroke: Black;"/>
  <line x1="  2200" y1="   470" x2="  2300" y2="   510" style = "stroke: Black;"/>
  <line x1="  2200" y1="   470" x2="  2300" y2="   550" style = "stroke: Black;"/>
  <line x1="  2200" y1="   470" x2="  2300" y2="   590" style = "stroke: Black;"/>
  <line x1="  2200" y1="   470" x2="  2300" y2="   630" style = "stroke: Black;"/>
  <line x1="  2200" y1="   470" x2="  2300" y2="   670" style = "stroke: Black;"/>
  <line x1="  2800" y1="   670" x2="  2900" y2="   670" style = "stroke: Black;"/>
  <line x1="   700" y1="   430" x2="   800" y2="   430" style = "stroke: Black;"/>
  <line x1="   700" y1="   430" x2="   800" y2="   470" style = "stroke: Black;"/>
  <line x1="  1300" y1="   470" x2="  1400" y2="   470" style = "stroke: Black;"/>
  <line x1="   400" y1="    30" x2="   450" y2="    30" style = "stroke: Black;"/>
  <line x1="   400" y1="   110" x2="   450" y2="   110" style = "stroke: Black;"/>
  <line x1="   400" y1="   190" x2="   450" y2="   190" style = "stroke: Black;"/>
  <line x1="   400" y1="   270" x2="   450" y2="   270" style = "stroke: Black;"/>
  <line x1="   400" y1="   350" x2="   450" y2="   350" style = "stroke: Black;"/>
  <line x1="  1150" y1="    30" x2="  1200" y2="    30" style = "stroke: Black;"/>
  <line x1="  1150" y1="   110" x2="  1200" y2="   110" style = "stroke: Black;"/>
  <line x1="  1150" y1="   190" x2="  1200" y2="   190" style = "stroke: Black;"/>
  <line x1="  1150" y1="   270" x2="  1200" y2="   270" style = "stroke: Black;"/>
  <line x1="  1150" y1="   350" x2="  1200" y2="   350" style = "stroke: Black;"/>
  <line x1="  2500" y1="   470" x2="  2600" y2="   670" style = "stroke: Black;"/>
  <line x1="   900" y1="    30" x2="   950" y2="    30" style = "stroke: Black;"/>
  <line x1="  2500" y1="   510" x2="  2600" y2="   670" style = "stroke: Black;"/>
  <line x1="   900" y1="   110" x2="   950" y2="   110" style = "stroke: Black;"/>
  <line x1="  2500" y1="   550" x2="  2600" y2="   670" style = "stroke: Black;"/>
  <line x1="   900" y1="   190" x2="   950" y2="   190" style = "stroke: Black;"/>
  <line x1="  2500" y1="   590" x2="  2600" y2="   670" style = "stroke: Black;"/>
  <line x1="   900" y1="   270" x2="   950" y2="   270" style = "stroke: Black;"/>
  <line x1="  2500" y1="   630" x2="  2600" y2="   670" style = "stroke: Black;"/>
  <line x1="   900" y1="   350" x2="   950" y2="   350" style = "stroke: Black;"/>
  <line x1="   650" y1="    30" x2="   700" y2="    30" style = "stroke: Black;"/>
  <line x1="   650" y1="   110" x2="   700" y2="   110" style = "stroke: Black;"/>
  <line x1="   650" y1="   190" x2="   700" y2="   190" style = "stroke: Black;"/>
  <line x1="   650" y1="   270" x2="   700" y2="   270" style = "stroke: Black;"/>
  <line x1="   650" y1="   350" x2="   700" y2="   350" style = "stroke: Black;"/>
  <line x1="  1000" y1="   470" x2="  1100" y2="   470" style = "stroke: Black;"/>
  <line x1="  1600" y1="   470" x2="  1700" y2="   470" style = "stroke: Black;"/>
  <line x1="  1900" y1="   470" x2="  2000" y2="   470" style = "stroke: Black;"/>
  <line x1="  2500" y1="   670" x2="  2600" y2="   670" style = "stroke: Black;"/>
  <line x1="  1000" y1="   430" x2="  1100" y2="   470" style = "stroke: Black;"/>
  <line x1="   400" y1="   430" x2="   500" y2="   430" style = "stroke: Black;"/>
  <line x1="   200" y1="    30" x2="   175" y2="    30" style = "stroke: Black;"/>
  <line x1="   175" y1="    30" x2="   175" y2="     0" style = "stroke: Black;"/>
  <line x1="   175" y1="     0" x2="  1425" y2="     0" style = "stroke: Black;"/>
  <line x1="  1425" y1="     0" x2="  1425" y2="    30" style = "stroke: Black;"/>
  <line x1="  1425" y1="    30" x2="  1400" y2="    30" style = "stroke: Black;"/>
  <line x1="   200" y1="   110" x2="   175" y2="   110" style = "stroke: Black;"/>
  <line x1="   175" y1="   110" x2="   175" y2="    80" style = "stroke: Black;"/>
  <line x1="   175" y1="    80" x2="  1425" y2="    80" style = "stroke: Black;"/>
  <line x1="  1425" y1="    80" x2="  1425" y2="   110" style = "stroke: Black;"/>
  <line x1="  1425" y1="   110" x2="  1400" y2="   110" style = "stroke: Black;"/>
  <line x1="   200" y1="   190" x2="   175" y2="   190" style = "stroke: Black;"/>
  <line x1="   175" y1="   190" x2="   175" y2="   160" style = "stroke: Black;"/>
  <line x1="   175" y1="   160" x2="  1425" y2="   160" style = "stroke: Black;"/>
  <line x1="  1425" y1="   160" x2="  1425" y2="   190" style = "stroke: Black;"/>
  <line x1="  1425" y1="   190" x2="  1400" y2="   190" style = "stroke: Black;"/>
  <line x1="   200" y1="   270" x2="   175" y2="   270" style = "stroke: Black;"/>
  <line x1="   175" y1="   270" x2="   175" y2="   240" style = "stroke: Black;"/>
  <line x1="   175" y1="   240" x2="  1425" y2="   240" style = "stroke: Black;"/>
  <line x1="  1425" y1="   240" x2="  1425" y2="   270" style = "stroke: Black;"/>
  <line x1="  1425" y1="   270" x2="  1400" y2="   270" style = "stroke: Black;"/>
  <line x1="   200" y1="   350" x2="   175" y2="   350" style = "stroke: Black;"/>
  <line x1="   175" y1="   350" x2="   175" y2="   320" style = "stroke: Black;"/>
  <line x1="   175" y1="   320" x2="  1425" y2="   320" style = "stroke: Black;"/>
  <line x1="  1425" y1="   320" x2="  1425" y2="   350" style = "stroke: Black;"/>
  <line x1="  1425" y1="   350" x2="  1400" y2="   350" style = "stroke: Black;"/>
  <line x1="   200" y1="   430" x2="   175" y2="   430" style = "stroke: Black;"/>
  <line x1="   175" y1="   430" x2="   175" y2="   400" style = "stroke: Black;"/>
  <line x1="   175" y1="   400" x2="  3125" y2="   400" style = "stroke: Black;"/>
  <line x1="  3125" y1="   400" x2="  3125" y2="   670" style = "stroke: Black;"/>
  <line x1="  3125" y1="   670" x2="  3100" y2="   670" style = "stroke: Black;"/>
  <text x="   200" y="  1120">Unused Non-Parent Objects:</text>
  <text x="   220" y="  1140">HEATSYS1 LOOP SETPOINT MANAGER</text>
  <text x="   200" y="  1180">
The following are not supported: objects related to controls, AirTerminal:SingleDuct:Uncontrolled, or ZoneHVAC:IdealLoadsAirSystem</text>
</g>
</svg>
